<svg width="64px" height="64px" viewBox="0 0 32 32" id="OBJECT" xmlns="http://www.w3.org/2000/svg" fill="#1f2937" stroke="#1f2937"><g id="SVGRepo_bgCarrier" stroke-width="0"></g><g id="SVGRepo_tracerCarrier" stroke-linecap="round" stroke-linejoin="round"></g><g id="SVGRepo_iconCarrier"><defs><style>.cls-1{fill:#b2b2b2;}</style></defs><title></title><path d="M28,1H8A3,3,0,0,0,5,4V16a3,3,0,0,0,3,3H22.22l1.43,5.73A3,3,0,0,0,26.56,27H28a3,3,0,0,0,3-3V4A3,3,0,0,0,28,1Z"></path><path class="cls-1" d="M24,5H4A3,3,0,0,0,1,8V28a3,3,0,0,0,3,3H5.44a3,3,0,0,0,2.91-2.27L9.78,23H24a3,3,0,0,0,3-3V8A3,3,0,0,0,24,5Z"></path><path d="M20,18H8a1,1,0,0,1,0-2H20a1,1,0,0,1,0,2Z"></path><path d="M16,12H8a1,1,0,0,1,0-2h8a1,1,0,0,1,0,2Z"></path></g></svg>